# This file uses centimeters as units for non-parametric coordinates.

mtllib Intro_Background.mtl
g default
v -37.350016 -0.825155 4.370128
v 34.974392 -0.825155 4.370128
v -37.350016 -0.067745 4.370128
v 34.974392 -0.067745 4.370128
v -37.350016 -0.067745 -3.996805
v 34.974392 -0.067745 -3.996805
v -37.350016 -0.825155 -3.996805
v 34.974392 -0.825155 -3.996805
v 34.974392 -0.067745 0.234903
v -37.350016 -0.067745 0.234903
v -37.350016 -0.825155 0.234903
v 34.974392 -0.825155 0.234903
v 34.974392 -0.067745 -0.484902
v -37.350016 -0.067745 -0.484902
v -37.350016 -0.825155 -0.484902
v 34.974392 -0.825155 -0.484902
v -0.353707 -0.067745 -3.996805
v -0.353707 -0.825155 -3.996805
v -0.353707 -0.825155 -0.484902
v -0.353707 -0.825155 0.234903
v -0.353707 -0.825155 4.370128
v -0.353707 -0.067745 4.370128
v -0.353707 -0.067745 0.234903
v -0.353707 -0.067745 -0.484902
v -2.594759 -0.067745 -3.996805
v -2.594759 -0.825155 -3.996805
v -2.594759 -0.825155 -0.484902
v -2.594759 -0.825155 0.234903
v -2.594759 -0.825155 4.370128
v -2.594759 -0.067745 4.370128
v -2.594759 -0.067745 0.234903
v -2.594759 -0.067745 -0.484902
vt 0.375000 0.000000
vt 0.625000 0.000000
vt 0.375000 0.250000
vt 0.625000 0.250000
vt 0.375000 0.500000
vt 0.625000 0.500000
vt 0.375000 0.750000
vt 0.625000 0.750000
vt 0.375000 1.000000
vt 0.625000 1.000000
vt 0.875000 0.000000
vt 0.875000 0.250000
vt 0.125000 0.000000
vt 0.125000 0.250000
vt 0.625000 0.373127
vt 0.748127 0.250000
vt 0.251873 0.250000
vt 0.375000 0.373127
vt 0.251873 0.000000
vt 0.375000 0.876873
vt 0.625000 0.876873
vt 0.748127 0.000000
vt 0.625000 0.394850
vt 0.769850 0.250000
vt 0.230150 0.250000
vt 0.375000 0.394850
vt 0.230150 0.000000
vt 0.375000 0.855150
vt 0.625000 0.855150
vt 0.769850 0.000000
vt 0.551761 0.500000
vt 0.551761 0.750000
vt 0.551761 0.855150
vt 0.551761 0.876873
vt 0.551761 0.000000
vt 0.551761 1.000000
vt 0.551761 0.250000
vt 0.551761 0.373127
vt 0.551761 0.394850
vt 0.455130 0.500000
vt 0.455130 0.750000
vt 0.455130 0.855150
vt 0.455130 0.876873
vt 0.455130 0.000000
vt 0.455130 1.000000
vt 0.455130 0.250000
vt 0.455130 0.373127
vt 0.455130 0.394850
vn 0.000000 0.000000 1.000000
vn 0.000000 0.000000 1.000000
vn 0.000000 0.000000 1.000000
vn 0.000000 0.000000 1.000000
vn 0.000000 1.000000 0.000000
vn 0.000000 1.000000 0.000000
vn 0.000000 1.000000 0.000000
vn 0.000000 1.000000 0.000000
vn 0.000000 0.000000 -1.000000
vn 0.000000 0.000000 -1.000000
vn 0.000000 0.000000 -1.000000
vn 0.000000 0.000000 -1.000000
vn 0.000000 -1.000000 0.000000
vn 0.000000 -1.000000 0.000000
vn 0.000000 -1.000000 0.000000
vn 0.000000 -1.000000 0.000000
vn 1.000000 0.000000 0.000000
vn 1.000000 0.000000 0.000000
vn 1.000000 0.000000 0.000000
vn 1.000000 0.000000 0.000000
vn -1.000000 0.000000 0.000000
vn -1.000000 0.000000 0.000000
vn -1.000000 0.000000 0.000000
vn -1.000000 0.000000 0.000000
vn 0.000000 1.000000 0.000000
vn 0.000000 1.000000 0.000000
vn -1.000000 0.000000 0.000000
vn -1.000000 0.000000 0.000000
vn 0.000000 -1.000000 0.000000
vn 0.000000 -1.000000 0.000000
vn 1.000000 0.000000 0.000000
vn 1.000000 0.000000 0.000000
vn 0.000000 1.000000 0.000000
vn 0.000000 1.000000 0.000000
vn -1.000000 0.000000 0.000000
vn -1.000000 0.000000 0.000000
vn 0.000000 -1.000000 0.000000
vn 0.000000 -1.000000 0.000000
vn 1.000000 0.000000 0.000000
vn 1.000000 0.000000 0.000000
vn 0.000000 0.000000 -1.000000
vn 0.000000 0.000000 -1.000000
vn 0.000000 0.000000 -1.000000
vn 0.000000 0.000000 -1.000000
vn 0.000000 -1.000000 0.000000
vn 0.000000 -1.000000 0.000000
vn 0.000000 -1.000000 0.000000
vn 0.000000 -1.000000 0.000000
vn 0.000000 -1.000000 0.000000
vn 0.000000 -1.000000 0.000000
vn 0.000000 -1.000000 0.000000
vn 0.000000 -1.000000 0.000000
vn 0.000000 0.000000 1.000000
vn 0.000000 0.000000 1.000000
vn 0.000000 0.000000 1.000000
vn 0.000000 0.000000 1.000000
vn 0.000000 1.000000 0.000000
vn 0.000000 1.000000 0.000000
vn 0.000000 1.000000 0.000000
vn 0.000000 1.000000 0.000000
vn 0.000000 1.000000 0.000000
vn 0.000000 1.000000 0.000000
vn 0.000000 1.000000 0.000000
vn 0.000000 1.000000 0.000000
vn 0.000000 0.000000 1.000000
vn 0.000000 0.000000 1.000000
vn 0.000000 0.000000 1.000000
vn 0.000000 0.000000 1.000000
vn 1.000000 0.000000 0.000000
vn 1.000000 0.000000 0.000000
vn 1.000000 0.000000 0.000000
vn 1.000000 0.000000 0.000000
vn 0.000000 0.000000 -1.000000
vn 0.000000 0.000000 -1.000000
vn 0.000000 0.000000 -1.000000
vn 0.000000 0.000000 -1.000000
vn -1.000000 0.000000 0.000000
vn -1.000000 0.000000 0.000000
vn -1.000000 0.000000 0.000000
vn -1.000000 0.000000 0.000000
s 1
g pCube15
usemtl lambert3SG
f 1/1/1 29/44/2 30/46/3 3/3/4
s 2
f 3/3/5 30/46/6 31/47/7 10/18/8
s 3
f 5/5/9 25/40/10 26/41/11 7/7/12
s 4
f 11/20/13 28/43/14 29/45/15 1/9/16
s 5
f 2/2/17 12/22/18 9/16/19 4/4/20
s 6
f 11/19/21 1/1/22 3/3/23 10/17/24
s 2
f 10/18/8 31/47/7 32/48/25 14/26/26
s 6
f 15/27/27 11/19/21 10/17/24 14/25/28
s 4
f 15/28/29 27/42/30 28/43/14 11/20/13
s 5
f 9/16/19 12/22/18 16/30/31 13/24/32
s 2
f 14/26/26 32/48/25 25/40/33 5/5/34
s 6
f 7/13/35 15/27/27 14/25/28 5/14/36
s 4
f 7/7/37 26/41/38 27/42/30 15/28/29
s 5
f 13/24/32 16/30/31 8/11/39 6/12/40
s 3
f 17/31/41 6/6/42 8/8/43 18/32/44
s 4
f 19/33/45 18/32/46 8/8/47 16/29/48
f 20/34/49 19/33/45 16/29/48 12/21/50
f 21/36/51 20/34/49 12/21/50 2/10/52
s 1
f 22/37/53 21/35/54 2/2/55 4/4/56
s 2
f 23/38/57 22/37/58 4/4/59 9/15/60
f 24/39/61 23/38/57 9/15/60 13/23/62
f 17/31/63 24/39/61 13/23/62 6/6/64
s 3
f 25/40/10 17/31/41 18/32/44 26/41/11
s 4
f 27/42/30 26/41/38 18/32/46 19/33/45
f 29/45/15 28/43/14 20/34/49 21/36/51
s 1
f 30/46/3 29/44/2 21/35/54 22/37/53
s 2
f 31/47/7 30/46/6 22/37/58 23/38/57
f 25/40/33 32/48/25 24/39/61 17/31/63
s off
f 24/39/65 32/48/66 27/42/67 19/33/68
f 28/43/69 27/42/70 32/48/71 31/47/72
f 31/47/73 23/38/74 20/34/75 28/43/76
f 19/33/77 20/34/78 23/38/79 24/39/80
