# This file uses centimeters as units for non-parametric coordinates.

mtllib C4_LIGHT.mtl
g default
v 0.957159 0.662899 -0.074109
v 0.957159 0.730337 -0.206464
v 0.957159 0.835375 -0.311501
v 0.957159 0.967730 -0.378940
v 0.957159 1.114447 -0.402178
v 0.957159 1.261164 -0.378940
v 0.957159 1.393519 -0.311501
v 0.957159 1.498556 -0.206464
v 0.957159 1.565995 -0.074109
v 0.957159 1.589233 0.072608
v 0.957159 1.565995 0.219325
v 0.957159 1.498556 0.351680
v 0.957159 1.393519 0.456718
v 0.957159 1.261164 0.524156
v 0.957159 1.114447 0.547394
v 0.957159 0.967730 0.524156
v 0.957159 0.835375 0.456718
v 0.957159 0.730338 0.351680
v 0.957159 0.662899 0.219325
v 0.957159 0.639661 0.072608
v 0.989484 0.704450 -0.060608
v 0.989484 0.765683 -0.180784
v 0.989484 0.861055 -0.276156
v 0.989484 0.981231 -0.337389
v 0.989484 1.114447 -0.358489
v 0.989484 1.247663 -0.337389
v 0.989484 1.367839 -0.276156
v 0.989484 1.463211 -0.180784
v 0.989484 1.524444 -0.060608
v 0.989484 1.545543 0.072608
v 0.989484 1.524444 0.205824
v 0.989484 1.463211 0.326000
v 0.989484 1.367839 0.421372
v 0.989484 1.247663 0.482605
v 0.989484 1.114447 0.503705
v 0.989484 0.981231 0.482605
v 0.989484 0.861055 0.421372
v 0.989484 0.765683 0.326000
v 0.989484 0.704450 0.205824
v 0.989484 0.683351 0.072608
v 1.018312 0.756097 -0.043827
v 1.018312 0.809616 -0.148865
v 1.018312 0.892974 -0.232223
v 1.018312 0.998012 -0.285742
v 1.018312 1.114447 -0.304184
v 1.018312 1.230882 -0.285742
v 1.018312 1.335920 -0.232223
v 1.018312 1.419278 -0.148865
v 1.018312 1.472797 -0.043827
v 1.018312 1.491239 0.072608
v 1.018312 1.472797 0.189043
v 1.018312 1.419278 0.294081
v 1.018312 1.335920 0.377439
v 1.018312 1.230882 0.430958
v 1.018312 1.114447 0.449400
v 1.018312 0.998012 0.430958
v 1.018312 0.892974 0.377439
v 1.018312 0.809616 0.294081
v 1.018312 0.756097 0.189043
v 1.018312 0.737655 0.072608
v 1.042933 0.816567 -0.024179
v 1.042933 0.861055 -0.111492
v 1.042933 0.930347 -0.180784
v 1.042933 1.017660 -0.225272
v 1.042933 1.114447 -0.240602
v 1.042933 1.211234 -0.225272
v 1.042933 1.298547 -0.180784
v 1.042933 1.367839 -0.111492
v 1.042933 1.412327 -0.024179
v 1.042933 1.427657 0.072608
v 1.042933 1.412327 0.169395
v 1.042933 1.367839 0.256708
v 1.042933 1.298547 0.326000
v 1.042933 1.211234 0.370488
v 1.042933 1.114447 0.385818
v 1.042933 1.017660 0.370488
v 1.042933 0.930347 0.326000
v 1.042933 0.861055 0.256708
v 1.042933 0.816567 0.169395
v 1.042933 0.801237 0.072608
v 1.062741 0.884372 -0.002148
v 1.062741 0.918733 -0.069586
v 1.062741 0.972253 -0.123106
v 1.062741 1.039691 -0.157467
v 1.062741 1.114447 -0.169307
v 1.062741 1.189203 -0.157467
v 1.062741 1.256641 -0.123106
v 1.062741 1.310161 -0.069586
v 1.062741 1.344522 -0.002148
v 1.062741 1.356362 0.072608
v 1.062741 1.344522 0.147364
v 1.062741 1.310161 0.214802
v 1.062741 1.256641 0.268322
v 1.062741 1.189203 0.302683
v 1.062741 1.114447 0.314523
v 1.062741 1.039691 0.302683
v 1.062741 0.972253 0.268322
v 1.062741 0.918733 0.214802
v 1.062741 0.884372 0.147364
v 1.062741 0.872532 0.072608
v 1.077249 0.957842 0.021724
v 1.077249 0.981231 -0.024179
v 1.077249 1.017660 -0.060608
v 1.077249 1.063563 -0.083997
v 1.077249 1.114447 -0.092056
v 1.077249 1.165331 -0.083997
v 1.077249 1.211234 -0.060608
v 1.077249 1.247663 -0.024179
v 1.077249 1.271052 0.021724
v 1.077249 1.279111 0.072608
v 1.077249 1.271052 0.123492
v 1.077249 1.247663 0.169395
v 1.077249 1.211234 0.205824
v 1.077249 1.165331 0.229213
v 1.077249 1.114447 0.237272
v 1.077249 1.063563 0.229213
v 1.077249 1.017660 0.205824
v 1.077249 0.981231 0.169395
v 1.077249 0.957842 0.123492
v 1.077249 0.949783 0.072608
v 1.086100 1.035168 0.046849
v 1.086100 1.047009 0.023611
v 1.086100 1.065450 0.005170
v 1.086100 1.088688 -0.006670
v 1.086100 1.114447 -0.010750
v 1.086100 1.140206 -0.006670
v 1.086100 1.163444 0.005170
v 1.086100 1.181885 0.023611
v 1.086100 1.193725 0.046849
v 1.086100 1.197805 0.072608
v 1.086100 1.193725 0.098367
v 1.086100 1.181885 0.121605
v 1.086100 1.163444 0.140046
v 1.086100 1.140206 0.151887
v 1.086100 1.114447 0.155966
v 1.086100 1.088688 0.151887
v 1.086100 1.065450 0.140046
v 1.086100 1.047009 0.121605
v 1.086100 1.035169 0.098367
v 1.086100 1.031089 0.072608
v 1.089074 1.114447 0.072608
vt 0.000000 0.650000
vt 0.050000 0.650000
vt 0.100000 0.650000
vt 0.150000 0.650000
vt 0.200000 0.650000
vt 0.250000 0.650000
vt 0.300000 0.650000
vt 0.350000 0.650000
vt 0.400000 0.650000
vt 0.450000 0.650000
vt 0.500000 0.650000
vt 0.550000 0.650000
vt 0.600000 0.650000
vt 0.650000 0.650000
vt 0.700000 0.650000
vt 0.750000 0.650000
vt 0.800000 0.650000
vt 0.850000 0.650000
vt 0.900000 0.650000
vt 0.950000 0.650000
vt 1.000000 0.650000
vt 0.000000 0.700000
vt 0.050000 0.700000
vt 0.100000 0.700000
vt 0.150000 0.700000
vt 0.200000 0.700000
vt 0.250000 0.700000
vt 0.300000 0.700000
vt 0.350000 0.700000
vt 0.400000 0.700000
vt 0.450000 0.700000
vt 0.500000 0.700000
vt 0.550000 0.700000
vt 0.600000 0.700000
vt 0.650000 0.700000
vt 0.700000 0.700000
vt 0.750000 0.700000
vt 0.800000 0.700000
vt 0.850000 0.700000
vt 0.900000 0.700000
vt 0.950000 0.700000
vt 1.000000 0.700000
vt 0.000000 0.750000
vt 0.050000 0.750000
vt 0.100000 0.750000
vt 0.150000 0.750000
vt 0.200000 0.750000
vt 0.250000 0.750000
vt 0.300000 0.750000
vt 0.350000 0.750000
vt 0.400000 0.750000
vt 0.450000 0.750000
vt 0.500000 0.750000
vt 0.550000 0.750000
vt 0.600000 0.750000
vt 0.650000 0.750000
vt 0.700000 0.750000
vt 0.750000 0.750000
vt 0.800000 0.750000
vt 0.850000 0.750000
vt 0.900000 0.750000
vt 0.950000 0.750000
vt 1.000000 0.750000
vt 0.000000 0.800000
vt 0.050000 0.800000
vt 0.100000 0.800000
vt 0.150000 0.800000
vt 0.200000 0.800000
vt 0.250000 0.800000
vt 0.300000 0.800000
vt 0.350000 0.800000
vt 0.400000 0.800000
vt 0.450000 0.800000
vt 0.500000 0.800000
vt 0.550000 0.800000
vt 0.600000 0.800000
vt 0.650000 0.800000
vt 0.700000 0.800000
vt 0.750000 0.800000
vt 0.800000 0.800000
vt 0.850000 0.800000
vt 0.900000 0.800000
vt 0.950000 0.800000
vt 1.000000 0.800000
vt 0.000000 0.850000
vt 0.050000 0.850000
vt 0.100000 0.850000
vt 0.150000 0.850000
vt 0.200000 0.850000
vt 0.250000 0.850000
vt 0.300000 0.850000
vt 0.350000 0.850000
vt 0.400000 0.850000
vt 0.450000 0.850000
vt 0.500000 0.850000
vt 0.550000 0.850000
vt 0.600000 0.850000
vt 0.650000 0.850000
vt 0.700000 0.850000
vt 0.750000 0.850000
vt 0.800000 0.850000
vt 0.850000 0.850000
vt 0.900000 0.850000
vt 0.950000 0.850000
vt 1.000000 0.850000
vt 0.000000 0.900000
vt 0.050000 0.900000
vt 0.100000 0.900000
vt 0.150000 0.900000
vt 0.200000 0.900000
vt 0.250000 0.900000
vt 0.300000 0.900000
vt 0.350000 0.900000
vt 0.400000 0.900000
vt 0.450000 0.900000
vt 0.500000 0.900000
vt 0.550000 0.900000
vt 0.600000 0.900000
vt 0.650000 0.900000
vt 0.700000 0.900000
vt 0.750000 0.900000
vt 0.800000 0.900000
vt 0.850000 0.900000
vt 0.900000 0.900000
vt 0.950000 0.900000
vt 1.000000 0.900000
vt 0.000000 0.950000
vt 0.050000 0.950000
vt 0.100000 0.950000
vt 0.150000 0.950000
vt 0.200000 0.950000
vt 0.250000 0.950000
vt 0.300000 0.950000
vt 0.350000 0.950000
vt 0.400000 0.950000
vt 0.450000 0.950000
vt 0.500000 0.950000
vt 0.550000 0.950000
vt 0.600000 0.950000
vt 0.650000 0.950000
vt 0.700000 0.950000
vt 0.750000 0.950000
vt 0.800000 0.950000
vt 0.850000 0.950000
vt 0.900000 0.950000
vt 0.950000 0.950000
vt 1.000000 0.950000
vt 0.025000 1.000000
vt 0.075000 1.000000
vt 0.125000 1.000000
vt 0.175000 1.000000
vt 0.225000 1.000000
vt 0.275000 1.000000
vt 0.325000 1.000000
vt 0.375000 1.000000
vt 0.425000 1.000000
vt 0.475000 1.000000
vt 0.525000 1.000000
vt 0.575000 1.000000
vt 0.625000 1.000000
vt 0.675000 1.000000
vt 0.725000 1.000000
vt 0.775000 1.000000
vt 0.825000 1.000000
vt 0.875000 1.000000
vt 0.925000 1.000000
vt 0.975000 1.000000
vn 0.803890 -0.565667 -0.183796
vn 0.803889 -0.481186 -0.349602
vn 0.842713 -0.435544 -0.316441
vn 0.842714 -0.512013 -0.166362
vn 0.803890 -0.349602 -0.481185
vn 0.842714 -0.316441 -0.435544
vn 0.803891 -0.183797 -0.565666
vn 0.842714 -0.166363 -0.512012
vn 0.803891 0.000000 -0.594777
vn 0.842714 0.000000 -0.538361
vn 0.803891 0.183797 -0.565666
vn 0.842714 0.166364 -0.512012
vn 0.803890 0.349602 -0.481185
vn 0.842713 0.316442 -0.435544
vn 0.803890 0.481185 -0.349602
vn 0.842713 0.435544 -0.316442
vn 0.803891 0.565666 -0.183796
vn 0.842714 0.512013 -0.166363
vn 0.803892 0.594776 0.000000
vn 0.842714 0.538361 0.000000
vn 0.803891 0.565666 0.183796
vn 0.842714 0.512013 0.166363
vn 0.803890 0.481186 0.349602
vn 0.842713 0.435544 0.316442
vn 0.803890 0.349602 0.481185
vn 0.842713 0.316442 0.435544
vn 0.803891 0.183796 0.565666
vn 0.842714 0.166363 0.512012
vn 0.803891 -0.000000 0.594777
vn 0.842714 -0.000000 0.538362
vn 0.803891 -0.183797 0.565666
vn 0.842714 -0.166363 0.512012
vn 0.803890 -0.349602 0.481186
vn 0.842713 -0.316441 0.435545
vn 0.803889 -0.481186 0.349603
vn 0.842713 -0.435544 0.316442
vn 0.803891 -0.565667 0.183796
vn 0.842714 -0.512013 0.166363
vn 0.803891 -0.594777 0.000000
vn 0.842714 -0.538362 0.000000
vn 0.906561 -0.341466 -0.248089
vn 0.906561 -0.401417 -0.130428
vn 0.906561 -0.248089 -0.341466
vn 0.906561 -0.130428 -0.401417
vn 0.906561 0.000000 -0.422075
vn 0.906561 0.130429 -0.401417
vn 0.906561 0.248090 -0.341466
vn 0.906561 0.341466 -0.248089
vn 0.906561 0.401417 -0.130428
vn 0.906561 0.422076 0.000000
vn 0.906561 0.401418 0.130428
vn 0.906561 0.341466 0.248090
vn 0.906561 0.248089 0.341466
vn 0.906561 0.130428 0.401417
vn 0.906561 0.000000 0.422075
vn 0.906561 -0.130428 0.401417
vn 0.906561 -0.248089 0.341466
vn 0.906561 -0.341466 0.248089
vn 0.906561 -0.401417 0.130428
vn 0.906561 -0.422075 0.000000
vn 0.946627 -0.260772 -0.189462
vn 0.946627 -0.306556 -0.099606
vn 0.946627 -0.189462 -0.260772
vn 0.946627 -0.099606 -0.306556
vn 0.946627 0.000000 -0.322332
vn 0.946627 0.099606 -0.306556
vn 0.946627 0.189462 -0.260772
vn 0.946627 0.260772 -0.189462
vn 0.946627 0.306556 -0.099606
vn 0.946627 0.322332 0.000000
vn 0.946627 0.306556 0.099606
vn 0.946627 0.260772 0.189462
vn 0.946627 0.189462 0.260772
vn 0.946627 0.099606 0.306556
vn 0.946627 0.000000 0.322332
vn 0.946627 -0.099606 0.306556
vn 0.946627 -0.189462 0.260772
vn 0.946627 -0.260772 0.189462
vn 0.946627 -0.306556 0.099606
vn 0.946627 -0.322332 0.000000
vn 0.971882 -0.190498 -0.138405
vn 0.971882 -0.223944 -0.072763
vn 0.971882 -0.138405 -0.190498
vn 0.971882 -0.072764 -0.223944
vn 0.971882 0.000000 -0.235468
vn 0.971882 0.072764 -0.223943
vn 0.971882 0.138405 -0.190498
vn 0.971882 0.190498 -0.138405
vn 0.971882 0.223944 -0.072764
vn 0.971882 0.235468 0.000000
vn 0.971882 0.223944 0.072764
vn 0.971882 0.190498 0.138405
vn 0.971882 0.138405 0.190498
vn 0.971882 0.072764 0.223944
vn 0.971882 0.000000 0.235468
vn 0.971882 -0.072764 0.223944
vn 0.971882 -0.138405 0.190498
vn 0.971882 -0.190498 0.138405
vn 0.971882 -0.223944 0.072764
vn 0.971882 -0.235468 0.000000
vn 0.987352 -0.128263 -0.093189
vn 0.987352 -0.150782 -0.048992
vn 0.987352 -0.093188 -0.128263
vn 0.987352 -0.048992 -0.150782
vn 0.987352 0.000000 -0.158541
vn 0.987352 0.048992 -0.150782
vn 0.987352 0.093188 -0.128263
vn 0.987352 0.128263 -0.093188
vn 0.987352 0.150782 -0.048992
vn 0.987352 0.158541 -0.000000
vn 0.987352 0.150782 0.048991
vn 0.987352 0.128263 0.093188
vn 0.987352 0.093188 0.128262
vn 0.987352 0.048992 0.150781
vn 0.987352 -0.000000 0.158541
vn 0.987352 -0.048992 0.150782
vn 0.987352 -0.093188 0.128263
vn 0.987352 -0.128263 0.093188
vn 0.987352 -0.150782 0.048992
vn 0.987352 -0.158541 0.000000
vn 0.995726 -0.074717 -0.054284
vn 0.995726 -0.087835 -0.028539
vn 0.995726 -0.054285 -0.074716
vn 0.995726 -0.028539 -0.087835
vn 0.995726 -0.000000 -0.092355
vn 0.995726 0.028539 -0.087834
vn 0.995726 0.054285 -0.074717
vn 0.995726 0.074717 -0.054285
vn 0.995726 0.087835 -0.028539
vn 0.995726 0.092355 -0.000000
vn 0.995726 0.087835 0.028538
vn 0.995726 0.074717 0.054284
vn 0.995726 0.054285 0.074716
vn 0.995726 0.028539 0.087834
vn 0.995726 -0.000000 0.092355
vn 0.995726 -0.028539 0.087835
vn 0.995726 -0.054285 0.074717
vn 0.995726 -0.074717 0.054285
vn 0.995726 -0.087835 0.028539
vn 0.995726 -0.092355 0.000001
vn 1.000000 0.000000 -0.000000
s 1
g pSphere1
usemtl initialShadingGroup
f 1/1/1 2/2/2 22/23/3 21/22/4
f 2/2/2 3/3/5 23/24/6 22/23/3
f 3/3/5 4/4/7 24/25/8 23/24/6
f 4/4/7 5/5/9 25/26/10 24/25/8
f 5/5/9 6/6/11 26/27/12 25/26/10
f 6/6/11 7/7/13 27/28/14 26/27/12
f 7/7/13 8/8/15 28/29/16 27/28/14
f 8/8/15 9/9/17 29/30/18 28/29/16
f 9/9/17 10/10/19 30/31/20 29/30/18
f 10/10/19 11/11/21 31/32/22 30/31/20
f 11/11/21 12/12/23 32/33/24 31/32/22
f 12/12/23 13/13/25 33/34/26 32/33/24
f 13/13/25 14/14/27 34/35/28 33/34/26
f 14/14/27 15/15/29 35/36/30 34/35/28
f 15/15/29 16/16/31 36/37/32 35/36/30
f 16/16/31 17/17/33 37/38/34 36/37/32
f 17/17/33 18/18/35 38/39/36 37/38/34
f 18/18/35 19/19/37 39/40/38 38/39/36
f 19/19/37 20/20/39 40/41/40 39/40/38
f 20/20/39 1/21/1 21/42/4 40/41/40
f 21/22/4 22/23/3 42/44/41 41/43/42
f 22/23/3 23/24/6 43/45/43 42/44/41
f 23/24/6 24/25/8 44/46/44 43/45/43
f 24/25/8 25/26/10 45/47/45 44/46/44
f 25/26/10 26/27/12 46/48/46 45/47/45
f 26/27/12 27/28/14 47/49/47 46/48/46
f 27/28/14 28/29/16 48/50/48 47/49/47
f 28/29/16 29/30/18 49/51/49 48/50/48
f 29/30/18 30/31/20 50/52/50 49/51/49
f 30/31/20 31/32/22 51/53/51 50/52/50
f 31/32/22 32/33/24 52/54/52 51/53/51
f 32/33/24 33/34/26 53/55/53 52/54/52
f 33/34/26 34/35/28 54/56/54 53/55/53
f 34/35/28 35/36/30 55/57/55 54/56/54
f 35/36/30 36/37/32 56/58/56 55/57/55
f 36/37/32 37/38/34 57/59/57 56/58/56
f 37/38/34 38/39/36 58/60/58 57/59/57
f 38/39/36 39/40/38 59/61/59 58/60/58
f 39/40/38 40/41/40 60/62/60 59/61/59
f 40/41/40 21/42/4 41/63/42 60/62/60
f 41/43/42 42/44/41 62/65/61 61/64/62
f 42/44/41 43/45/43 63/66/63 62/65/61
f 43/45/43 44/46/44 64/67/64 63/66/63
f 44/46/44 45/47/45 65/68/65 64/67/64
f 45/47/45 46/48/46 66/69/66 65/68/65
f 46/48/46 47/49/47 67/70/67 66/69/66
f 47/49/47 48/50/48 68/71/68 67/70/67
f 48/50/48 49/51/49 69/72/69 68/71/68
f 49/51/49 50/52/50 70/73/70 69/72/69
f 50/52/50 51/53/51 71/74/71 70/73/70
f 51/53/51 52/54/52 72/75/72 71/74/71
f 52/54/52 53/55/53 73/76/73 72/75/72
f 53/55/53 54/56/54 74/77/74 73/76/73
f 54/56/54 55/57/55 75/78/75 74/77/74
f 55/57/55 56/58/56 76/79/76 75/78/75
f 56/58/56 57/59/57 77/80/77 76/79/76
f 57/59/57 58/60/58 78/81/78 77/80/77
f 58/60/58 59/61/59 79/82/79 78/81/78
f 59/61/59 60/62/60 80/83/80 79/82/79
f 60/62/60 41/63/42 61/84/62 80/83/80
f 61/64/62 62/65/61 82/86/81 81/85/82
f 62/65/61 63/66/63 83/87/83 82/86/81
f 63/66/63 64/67/64 84/88/84 83/87/83
f 64/67/64 65/68/65 85/89/85 84/88/84
f 65/68/65 66/69/66 86/90/86 85/89/85
f 66/69/66 67/70/67 87/91/87 86/90/86
f 67/70/67 68/71/68 88/92/88 87/91/87
f 68/71/68 69/72/69 89/93/89 88/92/88
f 69/72/69 70/73/70 90/94/90 89/93/89
f 70/73/70 71/74/71 91/95/91 90/94/90
f 71/74/71 72/75/72 92/96/92 91/95/91
f 72/75/72 73/76/73 93/97/93 92/96/92
f 73/76/73 74/77/74 94/98/94 93/97/93
f 74/77/74 75/78/75 95/99/95 94/98/94
f 75/78/75 76/79/76 96/100/96 95/99/95
f 76/79/76 77/80/77 97/101/97 96/100/96
f 77/80/77 78/81/78 98/102/98 97/101/97
f 78/81/78 79/82/79 99/103/99 98/102/98
f 79/82/79 80/83/80 100/104/100 99/103/99
f 80/83/80 61/84/62 81/105/82 100/104/100
f 81/85/82 82/86/81 102/107/101 101/106/102
f 82/86/81 83/87/83 103/108/103 102/107/101
f 83/87/83 84/88/84 104/109/104 103/108/103
f 84/88/84 85/89/85 105/110/105 104/109/104
f 85/89/85 86/90/86 106/111/106 105/110/105
f 86/90/86 87/91/87 107/112/107 106/111/106
f 87/91/87 88/92/88 108/113/108 107/112/107
f 88/92/88 89/93/89 109/114/109 108/113/108
f 89/93/89 90/94/90 110/115/110 109/114/109
f 90/94/90 91/95/91 111/116/111 110/115/110
f 91/95/91 92/96/92 112/117/112 111/116/111
f 92/96/92 93/97/93 113/118/113 112/117/112
f 93/97/93 94/98/94 114/119/114 113/118/113
f 94/98/94 95/99/95 115/120/115 114/119/114
f 95/99/95 96/100/96 116/121/116 115/120/115
f 96/100/96 97/101/97 117/122/117 116/121/116
f 97/101/97 98/102/98 118/123/118 117/122/117
f 98/102/98 99/103/99 119/124/119 118/123/118
f 99/103/99 100/104/100 120/125/120 119/124/119
f 100/104/100 81/105/82 101/126/102 120/125/120
f 101/106/102 102/107/101 122/128/121 121/127/122
f 102/107/101 103/108/103 123/129/123 122/128/121
f 103/108/103 104/109/104 124/130/124 123/129/123
f 104/109/104 105/110/105 125/131/125 124/130/124
f 105/110/105 106/111/106 126/132/126 125/131/125
f 106/111/106 107/112/107 127/133/127 126/132/126
f 107/112/107 108/113/108 128/134/128 127/133/127
f 108/113/108 109/114/109 129/135/129 128/134/128
f 109/114/109 110/115/110 130/136/130 129/135/129
f 110/115/110 111/116/111 131/137/131 130/136/130
f 111/116/111 112/117/112 132/138/132 131/137/131
f 112/117/112 113/118/113 133/139/133 132/138/132
f 113/118/113 114/119/114 134/140/134 133/139/133
f 114/119/114 115/120/115 135/141/135 134/140/134
f 115/120/115 116/121/116 136/142/136 135/141/135
f 116/121/116 117/122/117 137/143/137 136/142/136
f 117/122/117 118/123/118 138/144/138 137/143/137
f 118/123/118 119/124/119 139/145/139 138/144/138
f 119/124/119 120/125/120 140/146/140 139/145/139
f 120/125/120 101/126/102 121/147/122 140/146/140
f 121/127/122 122/128/121 141/148/141
f 122/128/121 123/129/123 141/149/141
f 123/129/123 124/130/124 141/150/141
f 124/130/124 125/131/125 141/151/141
f 125/131/125 126/132/126 141/152/141
f 126/132/126 127/133/127 141/153/141
f 127/133/127 128/134/128 141/154/141
f 128/134/128 129/135/129 141/155/141
f 129/135/129 130/136/130 141/156/141
f 130/136/130 131/137/131 141/157/141
f 131/137/131 132/138/132 141/158/141
f 132/138/132 133/139/133 141/159/141
f 133/139/133 134/140/134 141/160/141
f 134/140/134 135/141/135 141/161/141
f 135/141/135 136/142/136 141/162/141
f 136/142/136 137/143/137 141/163/141
f 137/143/137 138/144/138 141/164/141
f 138/144/138 139/145/139 141/165/141
f 139/145/139 140/146/140 141/166/141
f 140/146/140 121/147/122 141/167/141
