# This file uses centimeters as units for non-parametric coordinates.

mtllib Surf_01.mtl
g default
v 32.524009 0.847764 -0.108777
v 29.470108 0.824496 -1.677871
v 25.683098 0.798624 -3.081191
v 21.305318 0.837302 -4.376951
v 16.375948 0.866755 -5.403877
v 11.014075 0.871345 -6.130533
v 5.350967 0.778930 -6.479176
v -0.420259 0.892711 -6.738714
v -6.202998 0.840777 -6.540230
v -11.855937 0.874995 -6.134452
v -17.212178 0.858813 -5.394222
v -22.088185 0.754899 -4.260807
v -26.546384 0.825672 -3.125827
v -30.322903 0.837241 -1.702500
v -33.377026 0.859539 -0.135253
v -35.540938 0.808986 1.740611
v 33.989522 2.229575 -3.215724
v 30.807132 2.212914 -4.360669
v 26.857882 2.194389 -5.384596
v 22.274177 2.222084 -6.328721
v 17.119751 2.243174 -7.077163
v 11.519880 2.246460 -7.607088
v 5.611908 2.180287 -7.862593
v -0.420258 2.261759 -8.050403
v -6.460668 2.224572 -7.906310
v -12.361361 2.249074 -7.609894
v -17.957201 2.237487 -7.070250
v -23.073415 2.163079 -6.245558
v -27.714703 2.213756 -5.416557
v -31.656439 2.222040 -4.378304
v -34.838999 2.238006 -3.234682
v -37.117688 2.201808 -1.868286
vt 0.075000 0.863972
vt 0.100000 0.865115
vt 0.125000 0.866386
vt 0.150000 0.864486
vt 0.175000 0.863040
vt 0.200000 0.862814
vt 0.225000 0.867353
vt 0.250000 0.861765
vt 0.275000 0.864316
vt 0.300000 0.862635
vt 0.325000 0.863430
vt 0.350000 0.868533
vt 0.375000 0.865057
vt 0.400000 0.864489
vt 0.425000 0.863394
vt 0.450000 0.865877
vt 0.075000 0.796115
vt 0.100000 0.796934
vt 0.125000 0.797843
vt 0.150000 0.796483
vt 0.175000 0.795448
vt 0.200000 0.795286
vt 0.225000 0.798536
vt 0.250000 0.794535
vt 0.275000 0.796361
vt 0.300000 0.795158
vt 0.325000 0.795727
vt 0.350000 0.799381
vt 0.375000 0.796892
vt 0.400000 0.796485
vt 0.425000 0.795701
vt 0.450000 0.797479
vn -0.150643 0.905581 0.396523
vn -0.162819 0.918394 0.360613
vn -0.162819 0.918394 0.360613
vn -0.152116 0.907194 0.392249
vn -0.128375 0.874468 0.467789
vn -0.130655 0.878341 0.459833
vn -0.106898 0.834104 0.541150
vn -0.109779 0.839931 0.531474
vn -0.083637 0.787420 0.610717
vn -0.086954 0.794008 0.601656
vn -0.057985 0.742328 0.667523
vn -0.061205 0.747403 0.661546
vn -0.029964 0.709967 0.703597
vn -0.031875 0.711536 0.701926
vn -0.000168 0.698031 0.716067
vn -0.000043 0.698031 0.716068
vn 0.029757 0.709978 0.703594
vn 0.031656 0.711556 0.701916
vn 0.057929 0.742554 0.667276
vn 0.061063 0.747424 0.661535
vn 0.084226 0.787936 0.609970
vn 0.087451 0.794159 0.601385
vn 0.107590 0.833961 0.541233
vn 0.110560 0.839950 0.531282
vn 0.128375 0.874116 0.468445
vn 0.130719 0.878374 0.459752
vn 0.150215 0.905605 0.396630
vn 0.151659 0.907176 0.392469
vn 0.180884 0.927264 0.327816
vn 0.179319 0.926560 0.330653
vn 0.197999 0.934346 0.296300
vn 0.197999 0.934346 0.296300
s 1
g pPipe1
usemtl initialShadingGroup
f 2/2/1 1/1/2 17/17/3 18/18/4
f 3/3/5 2/2/1 18/18/4 19/19/6
f 4/4/7 3/3/5 19/19/6 20/20/8
f 5/5/9 4/4/7 20/20/8 21/21/10
f 6/6/11 5/5/9 21/21/10 22/22/12
f 7/7/13 6/6/11 22/22/12 23/23/14
f 8/8/15 7/7/13 23/23/14 24/24/16
f 9/9/17 8/8/15 24/24/16 25/25/18
f 10/10/19 9/9/17 25/25/18 26/26/20
f 11/11/21 10/10/19 26/26/20 27/27/22
f 12/12/23 11/11/21 27/27/22 28/28/24
f 13/13/25 12/12/23 28/28/24 29/29/26
f 14/14/27 13/13/25 29/29/26 30/30/28
f 15/15/29 14/14/27 30/30/28 31/31/30
f 16/16/31 15/15/29 31/31/30 32/32/32
g default
v 29.586216 -2.020322 6.119461
v 26.825045 -2.020322 3.629556
v 23.393007 -2.020322 1.408999
v 19.374613 -2.020322 -0.487537
v 14.868801 -2.020322 -2.013351
v 9.986521 -2.020322 -3.130875
v 4.847993 -2.020322 -3.812590
v -0.420260 -2.020322 -4.041704
v -5.688509 -2.020322 -3.812590
v -10.827040 -2.020322 -3.130875
v -15.709322 -2.020322 -2.013352
v -20.215132 -2.020322 -0.487537
v -24.233527 -2.020322 1.408999
v -27.665572 -2.020322 3.629556
v -30.426737 -2.020322 6.119461
v -32.449041 -2.020322 8.817399
v 37.685111 5.616005 -11.050516
v 34.178707 5.616005 -11.125882
v 29.820338 5.616005 -11.193095
v 24.717352 5.616005 -11.250504
v 18.995402 5.616005 -11.296691
v 12.795367 5.616005 -11.330516
v 6.269923 5.616005 -11.351153
v -0.420257 5.616005 -11.358088
v -7.110436 5.616005 -11.351153
v -13.635886 5.616005 -11.330516
v -19.835927 5.616005 -11.296691
v -25.557871 5.616005 -11.250504
v -30.660859 5.616005 -11.193095
v -35.019224 5.616005 -11.125882
v -38.525652 5.616005 -11.050516
v -41.093782 5.616005 -10.968847
v 37.685107 -2.020322 -10.959048
v 34.178707 -2.020322 -11.034412
v 29.820342 -2.020322 -11.101626
v 24.717352 -2.020322 -11.159037
v 18.995402 -2.020321 -11.205221
v 12.795367 -2.020321 -11.239047
v 6.269923 -2.020322 -11.259681
v -0.420257 -2.020322 -11.266616
v -7.110435 -2.020322 -11.259681
v -13.635886 -2.020322 -11.239047
v -19.835927 -2.020322 -11.205221
v -25.557873 -2.020322 -11.159037
v -30.660859 -2.020322 -11.101626
v -35.019222 -2.020322 -11.034412
v -38.525652 -2.020322 -10.959048
v -41.093778 -2.020322 -10.877378
v 32.524009 0.749680 -0.108777
v 29.470108 0.726412 -1.677871
v 25.683098 0.700540 -3.081191
v 21.305318 0.739218 -4.376951
v 16.375948 0.768671 -5.403877
v 11.014075 0.773261 -6.130533
v 5.350967 0.680846 -6.479176
v -0.420259 0.794627 -6.738714
v -6.202998 0.742693 -6.540230
v -11.855937 0.776911 -6.134452
v -17.212178 0.760729 -5.394222
v -22.088185 0.656814 -4.260807
v -26.546384 0.727588 -3.125827
v -30.322903 0.739157 -1.702500
v -33.377026 0.761455 -0.135253
v -35.540938 0.710902 1.740611
v -34.903746 -2.020322 3.224995
v -32.726455 -2.020322 1.269956
v -29.753668 -2.020322 -0.534331
v -26.058591 -2.020322 -2.143440
v -21.732223 -2.020322 -3.517749
v -16.881087 -2.020322 -4.623417
v -11.624622 -2.020322 -5.433220
v -6.092270 -2.020322 -5.927219
v -0.420259 -2.020322 -6.093244
v 5.251756 -2.020322 -5.927219
v 10.784103 -2.020321 -5.433220
v 16.040566 -2.020321 -4.623416
v 20.891704 -2.020322 -3.517749
v 25.218073 -2.020322 -2.143440
v 28.913145 -2.020322 -0.534331
v 31.885926 -2.020322 1.269955
v 33.989522 2.131491 -3.215724
v 30.807132 2.114830 -4.360669
v 26.857882 2.096304 -5.384596
v 22.274177 2.124000 -6.328721
v 17.119751 2.145090 -7.077163
v 11.519880 2.148376 -7.607088
v 5.611908 2.082203 -7.862593
v -0.420258 2.163675 -8.050403
v -6.460668 2.126488 -7.906310
v -12.361361 2.150990 -7.609894
v -17.957201 2.139403 -7.070250
v -23.073415 2.064995 -6.245558
v -27.714703 2.115672 -5.416557
v -31.656439 2.123956 -4.378304
v -34.838999 2.139922 -3.234682
v -37.117688 2.103724 -1.868286
vt 0.075000 1.000000
vt 0.100000 1.000000
vt 0.125000 1.000000
vt 0.150000 1.000000
vt 0.175000 1.000000
vt 0.200000 1.000000
vt 0.225000 1.000000
vt 0.250000 1.000000
vt 0.275000 1.000000
vt 0.300000 1.000000
vt 0.325000 1.000000
vt 0.350000 1.000000
vt 0.375000 1.000000
vt 0.400000 1.000000
vt 0.425000 1.000000
vt 0.450000 1.000000
vt 0.075000 0.625000
vt 0.100000 0.625000
vt 0.125000 0.625000
vt 0.150000 0.625000
vt 0.175000 0.625000
vt 0.200000 0.625000
vt 0.225000 0.625000
vt 0.250000 0.625000
vt 0.275000 0.625000
vt 0.300000 0.625000
vt 0.325000 0.625000
vt 0.350000 0.625000
vt 0.375000 0.625000
vt 0.400000 0.625000
vt 0.425000 0.625000
vt 0.450000 0.625000
vt 0.075000 0.250000
vt 0.100000 0.250000
vt 0.125000 0.250000
vt 0.150000 0.250000
vt 0.175000 0.250000
vt 0.200000 0.250000
vt 0.225000 0.250000
vt 0.250000 0.250000
vt 0.275000 0.250000
vt 0.300000 0.250000
vt 0.325000 0.250000
vt 0.350000 0.250000
vt 0.375000 0.250000
vt 0.400000 0.250000
vt 0.425000 0.250000
vt 0.450000 0.250000
vt 0.075000 0.000000
vt 0.100000 0.000000
vt 0.125000 0.000000
vt 0.150000 0.000000
vt 0.175000 0.000000
vt 0.200000 0.000000
vt 0.225000 0.000000
vt 0.250000 0.000000
vt 0.275000 0.000000
vt 0.300000 0.000000
vt 0.325000 0.000000
vt 0.350000 0.000000
vt 0.375000 0.000000
vt 0.400000 0.000000
vt 0.425000 0.000000
vt 0.450000 0.000000
vt 0.075000 0.863972
vt 0.075000 0.226713
vt 0.100000 0.865115
vt 0.125000 0.866386
vt 0.150000 0.864486
vt 0.175000 0.863040
vt 0.200000 0.862814
vt 0.225000 0.867353
vt 0.250000 0.861765
vt 0.275000 0.864316
vt 0.300000 0.862635
vt 0.325000 0.863430
vt 0.350000 0.868533
vt 0.375000 0.865057
vt 0.400000 0.864489
vt 0.425000 0.863394
vt 0.450000 0.865877
vt 0.450000 0.070988
vt 0.425000 0.070988
vt 0.400000 0.070988
vt 0.375000 0.070988
vt 0.350000 0.070988
vt 0.325000 0.070988
vt 0.300000 0.070988
vt 0.275000 0.070988
vt 0.250000 0.070988
vt 0.225000 0.070988
vt 0.200000 0.070988
vt 0.175000 0.070988
vt 0.150000 0.070988
vt 0.125000 0.070988
vt 0.100000 0.070988
vt 0.075000 0.070988
vt 0.075000 0.796115
vt 0.075000 0.339808
vt 0.100000 0.796934
vt 0.125000 0.797843
vt 0.150000 0.796483
vt 0.175000 0.795448
vt 0.200000 0.795286
vt 0.225000 0.798536
vt 0.250000 0.794535
vt 0.275000 0.796361
vt 0.300000 0.795158
vt 0.325000 0.795727
vt 0.350000 0.799381
vt 0.375000 0.796892
vt 0.400000 0.796485
vt 0.425000 0.795701
vt 0.450000 0.797479
vn -0.218666 0.907538 0.358552
vn -0.231427 0.916499 0.326298
vn -0.209672 0.917691 0.337462
vn -0.194471 0.906922 0.373730
vn -0.190191 0.879890 0.435454
vn -0.169522 0.879238 0.445200
vn -0.161836 0.840941 0.516360
vn -0.144183 0.841134 0.521254
vn -0.129339 0.794119 0.593841
vn -0.115711 0.795210 0.595191
vn -0.091247 0.747462 0.658008
vn -0.081979 0.748457 0.658097
vn -0.047167 0.711704 0.700894
vn -0.042772 0.712058 0.700817
vn 0.000106 0.698308 0.715798
vn 0.000085 0.698209 0.715894
vn 0.047035 0.711643 0.700965
vn 0.042616 0.712018 0.700866
vn 0.091025 0.747197 0.658340
vn 0.081869 0.748313 0.658274
vn 0.129534 0.793778 0.594254
vn 0.115647 0.794934 0.595571
vn 0.162341 0.841113 0.515922
vn 0.145098 0.841331 0.520681
vn 0.190239 0.880165 0.434878
vn 0.169183 0.879400 0.445008
vn 0.218420 0.907517 0.358756
vn 0.194343 0.906902 0.373844
vn 0.255655 0.923061 0.287400
vn 0.225098 0.924122 0.308754
vn 0.272480 0.926470 0.259630
vn 0.254413 0.928995 0.268778
vn 0.018124 -0.011975 -0.999764
vn 0.021487 -0.011974 -0.999697
vn 0.021487 -0.011974 -0.999697
vn 0.018125 -0.011975 -0.999764
vn 0.013169 -0.011976 -0.999842
vn 0.013170 -0.011976 -0.999842
vn 0.009569 -0.011977 -0.999883
vn 0.009569 -0.011977 -0.999883
vn 0.006711 -0.011977 -0.999906
vn 0.006711 -0.011977 -0.999906
vn 0.004279 -0.011977 -0.999919
vn 0.004279 -0.011977 -0.999919
vn 0.002086 -0.011978 -0.999926
vn 0.002086 -0.011978 -0.999926
vn 0.000000 -0.011978 -0.999928
vn 0.000000 -0.011978 -0.999928
vn -0.002086 -0.011978 -0.999926
vn -0.002086 -0.011978 -0.999926
vn -0.004279 -0.011977 -0.999919
vn -0.004279 -0.011977 -0.999919
vn -0.006711 -0.011977 -0.999906
vn -0.006711 -0.011977 -0.999906
vn -0.009569 -0.011977 -0.999883
vn -0.009569 -0.011977 -0.999882
vn -0.013169 -0.011976 -0.999842
vn -0.013170 -0.011976 -0.999842
vn -0.018124 -0.011975 -0.999764
vn -0.018125 -0.011975 -0.999764
vn -0.025840 -0.011973 -0.999594
vn -0.025842 -0.011973 -0.999594
vn -0.031782 -0.011971 -0.999423
vn -0.031782 -0.011971 -0.999423
vn 0.000000 -1.000000 -0.000000
vn 0.000000 -1.000000 -0.000000
vn 0.000000 -1.000000 -0.000000
vn 0.000000 -1.000000 -0.000000
vn 0.000000 -1.000000 -0.000000
vn 0.000000 -1.000000 0.000000
vn -0.000000 -1.000000 -0.000000
vn -0.000000 -1.000000 -0.000000
vn -0.000000 -1.000000 -0.000000
vn 0.000000 -1.000000 -0.000000
vn 0.000000 -1.000000 -0.000000
vn 0.000000 -1.000000 -0.000000
vn 0.000000 -1.000000 -0.000000
vn 0.000000 -1.000000 -0.000000
vn -0.000000 -1.000000 -0.000000
vn 0.000000 -1.000000 -0.000000
vn -0.000000 -1.000000 -0.000000
vn 0.000000 -1.000000 -0.000000
vn -0.000000 -1.000000 -0.000000
vn 0.000000 -1.000000 0.000000
vn -0.000000 -1.000000 -0.000000
vn 0.000000 -1.000000 -0.000000
vn -0.000000 -1.000000 -0.000000
vn 0.000000 -1.000000 0.000000
vn -0.000000 -1.000000 -0.000000
vn 0.000000 -1.000000 -0.000000
vn -0.000000 -1.000000 -0.000000
vn 0.000000 -1.000000 0.000000
vn -0.000000 -1.000000 0.000000
vn 0.000000 -1.000000 -0.000000
vn -0.000000 -1.000000 -0.000000
vn 0.000000 -1.000000 -0.000000
vn 0.903540 0.005133 0.428473
vn 0.903540 0.005131 0.428473
vn 0.903540 0.005131 0.428473
vn 0.903540 0.005132 0.428473
vn -0.098796 0.915422 0.390181
vn -0.091401 0.900976 0.424132
vn -0.077203 0.868663 0.489350
vn -0.063538 0.828401 0.556520
vn -0.049443 0.783201 0.619799
vn -0.034161 0.740114 0.671613
vn -0.017735 0.709117 0.704867
vn -0.000055 0.697709 0.716381
vn 0.017574 0.709128 0.704861
vn 0.034149 0.740268 0.671444
vn 0.049639 0.783497 0.619409
vn 0.064345 0.828424 0.556393
vn 0.076874 0.868382 0.489902
vn 0.091191 0.900982 0.424164
vn 0.110291 0.925354 0.362707
vn 0.129816 0.935792 0.327784
vn -0.000000 -1.000000 0.000000
vn -0.000000 -1.000000 0.000000
vn -0.000000 -1.000000 0.000000
vn -0.000000 -1.000000 -0.000000
vn -0.000000 -1.000000 -0.000000
vn -0.000000 -1.000000 -0.000000
vn -0.000000 -1.000000 -0.000000
vn -0.000000 -1.000000 -0.000000
vn 0.000000 -1.000000 -0.000000
vn 0.000000 -1.000000 -0.000000
vn 0.000000 -1.000000 0.000000
vn -0.000000 -1.000000 -0.000000
vn -0.000000 -1.000000 -0.000000
vn 0.000000 -1.000000 -0.000000
vn 0.000000 -1.000000 -0.000000
vn 0.000000 -1.000000 -0.000000
vn 0.903540 0.005133 0.428473
vn 0.903540 0.005133 0.428473
vn -0.075338 0.913205 0.400475
vn -0.070435 0.902501 0.424890
vn -0.058741 0.871212 0.487380
vn -0.048250 0.831948 0.552752
vn -0.037507 0.786913 0.615923
vn -0.025978 0.742731 0.669086
vn -0.013430 0.709853 0.704222
vn -0.000039 0.697594 0.716493
vn 0.013347 0.709877 0.704199
vn 0.025953 0.742841 0.668964
vn 0.037738 0.787164 0.615588
vn 0.048549 0.831877 0.552832
vn 0.058689 0.871069 0.487641
vn 0.070249 0.902496 0.424931
vn 0.087089 0.926160 0.366939
vn 0.095447 0.934535 0.342833
vn -0.915663 0.004814 0.401917
vn -0.915663 0.004814 0.401917
vn -0.915663 0.004814 0.401917
vn -0.915663 0.004814 0.401917
vn -0.915663 0.004814 0.401917
vn -0.915663 0.004814 0.401917
s 1
g pPipe2
usemtl initialShadingGroup
f 34/34/33 33/33/34 81/97/35 82/99/36
f 35/35/37 34/34/33 82/99/36 83/100/38
f 36/36/39 35/35/37 83/100/38 84/101/40
f 37/37/41 36/36/39 84/101/40 85/102/42
f 38/38/43 37/37/41 85/102/42 86/103/44
f 39/39/45 38/38/43 86/103/44 87/104/46
f 40/40/47 39/39/45 87/104/46 88/105/48
f 41/41/49 40/40/47 88/105/48 89/106/50
f 42/42/51 41/41/49 89/106/50 90/107/52
f 43/43/53 42/42/51 90/107/52 91/108/54
f 44/44/55 43/43/53 91/108/54 92/109/56
f 45/45/57 44/44/55 92/109/56 93/110/58
f 46/46/59 45/45/57 93/110/58 94/111/60
f 47/47/61 46/46/59 94/111/60 95/112/62
f 48/48/63 47/47/61 95/112/62 96/113/64
s 2
f 50/50/65 49/49/66 65/65/67 66/66/68
f 51/51/69 50/50/65 66/66/68 67/67/70
f 52/52/71 51/51/69 67/67/70 68/68/72
f 53/53/73 52/52/71 68/68/72 69/69/74
f 54/54/75 53/53/73 69/69/74 70/70/76
f 55/55/77 54/54/75 70/70/76 71/71/78
f 56/56/79 55/55/77 71/71/78 72/72/80
f 57/57/81 56/56/79 72/72/80 73/73/82
f 58/58/83 57/57/81 73/73/82 74/74/84
f 59/59/85 58/58/83 74/74/84 75/75/86
f 60/60/87 59/59/85 75/75/86 76/76/88
f 61/61/89 60/60/87 76/76/88 77/77/90
f 62/62/91 61/61/89 77/77/90 78/78/92
f 63/63/93 62/62/91 78/78/92 79/79/94
f 64/64/95 63/63/93 79/79/94 80/80/96
s 3
f 111/128/97 112/129/98 33/81/99 34/82/100
f 110/127/101 111/128/97 34/82/100 35/83/102
f 109/126/103 110/127/101 35/83/102 36/84/104
f 108/125/105 109/126/103 36/84/104 37/85/106
f 107/124/107 108/125/105 37/85/106 38/86/108
f 106/123/109 107/124/107 38/86/108 39/87/110
f 105/122/111 106/123/109 39/87/110 40/88/112
f 104/121/113 105/122/111 40/88/112 41/89/114
f 103/120/115 104/121/113 41/89/114 42/90/116
f 102/119/117 103/120/115 42/90/116 43/91/118
f 101/118/119 102/119/117 43/91/118 44/92/120
f 100/117/121 101/118/119 44/92/120 45/93/122
f 99/116/123 100/117/121 45/93/122 46/94/124
f 98/115/125 99/116/123 46/94/124 47/95/126
f 97/114/127 98/115/125 47/95/126 48/96/128
s 4
f 113/131/129 81/98/130 33/81/131 112/129/132
s 1
f 82/99/36 81/97/35 113/130/133 114/132/134
f 83/100/38 82/99/36 114/132/134 115/133/135
f 84/101/40 83/100/38 115/133/135 116/134/136
f 85/102/42 84/101/40 116/134/136 117/135/137
f 86/103/44 85/102/42 117/135/137 118/136/138
f 87/104/46 86/103/44 118/136/138 119/137/139
f 88/105/48 87/104/46 119/137/139 120/138/140
f 89/106/50 88/105/48 120/138/140 121/139/141
f 90/107/52 89/106/50 121/139/141 122/140/142
f 91/108/54 90/107/52 122/140/142 123/141/143
f 92/109/56 91/108/54 123/141/143 124/142/144
f 93/110/58 92/109/56 124/142/144 125/143/145
f 94/111/60 93/110/58 125/143/145 126/144/146
f 95/112/62 94/111/60 126/144/146 127/145/147
f 96/113/64 95/112/62 127/145/147 128/146/148
s 3
f 80/80/149 79/79/150 98/115/125 97/114/127
f 79/79/150 78/78/151 99/116/123 98/115/125
f 78/78/151 77/77/152 100/117/121 99/116/123
f 77/77/152 76/76/153 101/118/119 100/117/121
f 76/76/153 75/75/154 102/119/117 101/118/119
f 75/75/154 74/74/155 103/120/115 102/119/117
f 74/74/155 73/73/156 104/121/113 103/120/115
f 73/73/156 72/72/157 105/122/111 104/121/113
f 72/72/157 71/71/158 106/123/109 105/122/111
f 71/71/158 70/70/159 107/124/107 106/123/109
f 70/70/159 69/69/160 108/125/105 107/124/107
f 69/69/160 68/68/161 109/126/103 108/125/105
f 68/68/161 67/67/162 110/127/101 109/126/103
f 67/67/162 66/66/163 111/128/97 110/127/101
f 66/66/163 65/65/164 112/129/98 111/128/97
s 4
f 49/49/165 113/131/129 112/129/132 65/65/166
s 1
f 114/132/134 113/130/133 49/49/167 50/50/168
f 115/133/135 114/132/134 50/50/168 51/51/169
f 116/134/136 115/133/135 51/51/169 52/52/170
f 117/135/137 116/134/136 52/52/170 53/53/171
f 118/136/138 117/135/137 53/53/171 54/54/172
f 119/137/139 118/136/138 54/54/172 55/55/173
f 120/138/140 119/137/139 55/55/173 56/56/174
f 121/139/141 120/138/140 56/56/174 57/57/175
f 122/140/142 121/139/141 57/57/175 58/58/176
f 123/141/143 122/140/142 58/58/176 59/59/177
f 124/142/144 123/141/143 59/59/177 60/60/178
f 125/143/145 124/142/144 60/60/178 61/61/179
f 126/144/146 125/143/145 61/61/179 62/62/180
f 127/145/147 126/144/146 62/62/180 63/63/181
f 128/146/148 127/145/147 63/63/181 64/64/182
s off
f 96/113/183 128/146/184 64/64/185 80/80/186 97/114/187 48/48/188
